<svg width="20" height="20" viewBox="0 0 20 20" fill="none" xmlns="http://www.w3.org/2000/svg">
<path d="M5.93413 13.0052C5.64124 13.2981 5.64124 13.773 5.93413 14.0659C6.22703 14.3587 6.7019 14.3587 6.99479 14.0659L5.93413 13.0052ZM14.2855 6.46446C14.2855 6.05024 13.9497 5.71445 13.5355 5.71446L6.78553 5.71445C6.37132 5.71445 6.03553 6.05024 6.03553 6.46445C6.03553 6.87867 6.37132 7.21445 6.78553 7.21445H12.7855V13.2145C12.7855 13.6287 13.1213 13.9645 13.5355 13.9645C13.9497 13.9645 14.2855 13.6287 14.2855 13.2145L14.2855 6.46446ZM6.99479 14.0659L14.0659 6.99478L13.0052 5.93412L5.93413 13.0052L6.99479 14.0659Z" fill="#5D37F3"/>
</svg>
