<svg width="20" height="20" viewBox="0 0 20 20" fill="none" xmlns="http://www.w3.org/2000/svg">
<path d="M13.9582 2.96669V1.66669C13.9582 1.32502 13.6749 1.04169 13.3332 1.04169C12.9915 1.04169 12.7082 1.32502 12.7082 1.66669V2.91669H7.29153V1.66669C7.29153 1.32502 7.0082 1.04169 6.66653 1.04169C6.32486 1.04169 6.04153 1.32502 6.04153 1.66669V2.96669C3.79153 3.17502 2.69987 4.51669 2.5332 6.50835C2.51653 6.75002 2.71653 6.95002 2.94987 6.95002H17.0499C17.2915 6.95002 17.4915 6.74169 17.4665 6.50835C17.2999 4.51669 16.2082 3.17502 13.9582 2.96669Z" fill="#85858D"/>
<path opacity="0.4" d="M16.6667 8.20001C17.125 8.20001 17.5 8.57501 17.5 9.03335V14.1667C17.5 16.6667 16.25 18.3333 13.3333 18.3333H6.66667C3.75 18.3333 2.5 16.6667 2.5 14.1667V9.03335C2.5 8.57501 2.875 8.20001 3.33333 8.20001H16.6667Z" fill="#85858D"/>
<path d="M7.08333 12.5C6.86667 12.5 6.65 12.4083 6.49167 12.2583C6.34167 12.1 6.25 11.8833 6.25 11.6666C6.25 11.45 6.34167 11.2333 6.49167 11.075C6.725 10.8416 7.09167 10.7666 7.4 10.9C7.50833 10.9416 7.6 11 7.675 11.075C7.825 11.2333 7.91667 11.45 7.91667 11.6666C7.91667 11.8833 7.825 12.1 7.675 12.2583C7.51667 12.4083 7.3 12.5 7.08333 12.5Z" fill="#85858D"/>
<path d="M10.0003 12.5C9.78366 12.5 9.56699 12.4083 9.40866 12.2583C9.25866 12.1 9.16699 11.8833 9.16699 11.6666C9.16699 11.45 9.25866 11.2333 9.40866 11.075C9.48366 11 9.57532 10.9416 9.68366 10.9C9.99199 10.7666 10.3587 10.8416 10.592 11.075C10.742 11.2333 10.8337 11.45 10.8337 11.6666C10.8337 11.8833 10.742 12.1 10.592 12.2583C10.5503 12.2916 10.5087 12.325 10.467 12.3583C10.417 12.3916 10.367 12.4167 10.317 12.4333C10.267 12.4583 10.217 12.475 10.167 12.4833C10.1087 12.4917 10.0587 12.5 10.0003 12.5Z" fill="#85858D"/>
<path d="M12.9163 12.5C12.6997 12.5 12.483 12.4083 12.3247 12.2583C12.1747 12.1 12.083 11.8833 12.083 11.6667C12.083 11.45 12.1747 11.2333 12.3247 11.075C12.408 11 12.4913 10.9416 12.5997 10.9C12.7497 10.8333 12.9163 10.8166 13.083 10.85C13.133 10.8583 13.183 10.875 13.233 10.9C13.283 10.9166 13.333 10.9417 13.383 10.975C13.4247 11.0083 13.4663 11.0417 13.508 11.075C13.658 11.2333 13.7497 11.45 13.7497 11.6667C13.7497 11.8833 13.658 12.1 13.508 12.2583C13.4663 12.2916 13.4247 12.325 13.383 12.3583C13.333 12.3916 13.283 12.4167 13.233 12.4333C13.183 12.4583 13.133 12.475 13.083 12.4833C13.0247 12.4917 12.9663 12.5 12.9163 12.5Z" fill="#85858D"/>
<path d="M7.08333 15.4167C6.975 15.4167 6.86667 15.3917 6.76667 15.35C6.65833 15.3084 6.575 15.25 6.49167 15.175C6.34167 15.0167 6.25 14.8 6.25 14.5833C6.25 14.3667 6.34167 14.15 6.49167 13.9917C6.575 13.9167 6.65833 13.8583 6.76667 13.8167C6.91667 13.75 7.08333 13.7333 7.25 13.7667C7.3 13.775 7.35 13.7917 7.4 13.8167C7.45 13.8333 7.5 13.8584 7.55 13.8917C7.59167 13.925 7.63333 13.9584 7.675 13.9917C7.825 14.15 7.91667 14.3667 7.91667 14.5833C7.91667 14.8 7.825 15.0167 7.675 15.175C7.63333 15.2083 7.59167 15.25 7.55 15.275C7.5 15.3083 7.45 15.3334 7.4 15.35C7.35 15.375 7.3 15.3917 7.25 15.4C7.19167 15.4084 7.14167 15.4167 7.08333 15.4167Z" fill="#85858D"/>
<path d="M10.0003 15.4167C9.78366 15.4167 9.56699 15.325 9.40866 15.175C9.25866 15.0167 9.16699 14.8 9.16699 14.5833C9.16699 14.3667 9.25866 14.15 9.40866 13.9917C9.71699 13.6834 10.2837 13.6834 10.592 13.9917C10.742 14.15 10.8337 14.3667 10.8337 14.5833C10.8337 14.8 10.742 15.0167 10.592 15.175C10.4337 15.325 10.217 15.4167 10.0003 15.4167Z" fill="#85858D"/>
<path d="M12.9163 15.4167C12.6997 15.4167 12.483 15.325 12.3247 15.175C12.1747 15.0167 12.083 14.8 12.083 14.5833C12.083 14.3667 12.1747 14.15 12.3247 13.9917C12.633 13.6834 13.1997 13.6834 13.508 13.9917C13.658 14.15 13.7497 14.3667 13.7497 14.5833C13.7497 14.8 13.658 15.0167 13.508 15.175C13.3497 15.325 13.133 15.4167 12.9163 15.4167Z" fill="#85858D"/>
</svg>
